<svg width="36" height="43" viewBox="0 0 36 43" fill="none" xmlns="http://www.w3.org/2000/svg">
<g id="Apple">
<path id="&#60;Path&#62;" d="M29.8505 22.8541C29.8721 21.2213 30.3163 19.6203 31.1419 18.2001C31.9675 16.78 33.1477 15.5867 34.5726 14.7315C33.6674 13.4694 32.4732 12.4307 31.085 11.698C29.6967 10.9653 28.1525 10.5587 26.5752 10.5105C23.2103 10.1657 19.9483 12.4762 18.2336 12.4762C16.4858 12.4762 13.8458 10.5447 11.003 10.6018C9.16416 10.6598 7.3721 11.1819 5.80138 12.1171C4.23066 13.0523 2.93487 14.3688 2.04025 15.9383C-1.83496 22.4887 1.0556 32.1157 4.7678 37.4107C6.6251 40.0034 8.79573 42.8996 11.636 42.7969C14.4154 42.6843 15.4534 41.0666 18.8083 41.0666C22.1321 41.0666 23.106 42.7969 26.0039 42.7316C28.9863 42.6843 30.8653 40.1273 32.6575 37.51C33.9919 35.6626 35.0188 33.6207 35.7 31.4602C33.9674 30.7447 32.4887 29.5471 31.4485 28.0167C30.4083 26.4863 29.8525 24.6908 29.8505 22.8541Z" fill="white"/>
<path id="&#60;Path&#62;_2" d="M24.377 7.02848C26.0031 5.12266 26.8042 2.67303 26.6102 0.199829C24.1259 0.454576 21.8311 1.61379 20.183 3.44649C19.3772 4.34181 18.76 5.38341 18.3668 6.51174C17.9735 7.64007 17.8119 8.83299 17.8912 10.0223C19.1338 10.0348 20.3632 9.77186 21.4866 9.25328C22.61 8.7347 23.5983 7.974 24.377 7.02848Z" fill="white"/>
</g>
</svg>
