<svg width="39" height="43" viewBox="0 0 39 43" fill="none" xmlns="http://www.w3.org/2000/svg">
<g id="Playstore">
<path id="path94" d="M18.6036 20.5443L1.3591 39.2603C1.36072 39.2636 1.36072 39.2686 1.36234 39.2719C1.89197 41.3042 3.70599 42.7998 5.86013 42.7998C6.72179 42.7998 7.53 42.5613 8.22322 42.1439L8.27828 42.1108L27.6883 30.6576L18.6036 20.5443Z" fill="white"/>
<path id="path98" d="M36.049 17.3577L36.0328 17.3461L27.6527 12.3789L18.2117 20.9701L27.6867 30.6561L36.0215 25.7386C37.4824 24.9303 38.4753 23.3552 38.4753 21.5399C38.4753 19.7345 37.497 18.1677 36.049 17.3577Z" fill="white"/>
<path id="path102" d="M1.35874 3.73818C1.25508 4.12906 1.20001 4.53982 1.20001 4.96383V38.0366C1.20001 38.4606 1.25508 38.8713 1.36036 39.2606L19.196 21.0232L1.35874 3.73818Z" fill="white"/>
<path id="path106" d="M18.7311 21.4998L27.6555 12.3753L8.26814 0.880703C7.56359 0.448412 6.7408 0.19997 5.86132 0.19997C3.70718 0.19997 1.88992 1.69891 1.36029 3.73283C1.36029 3.73449 1.35867 3.73614 1.35867 3.7378L18.7311 21.4998Z" fill="white"/>
<path id="Vector 18" d="M1 7L29 30L30 29.5L1 7Z" fill="black"/>
<path id="Vector 19" d="M0 35.0118L30 13.5L29 13L0 35.0118Z" fill="black"/>
</g>
</svg>
